<?xml version="1.0" standalone="no"?>
<!DOCTYPE svg PUBLIC "-//W3C//DTD SVG 20010904//EN"
 "http://www.w3.org/TR/2001/REC-SVG-20010904/DTD/svg10.dtd">
<svg version="1.0" xmlns="http://www.w3.org/2000/svg"
 width="173.000000pt" height="28.000000pt" viewBox="0 0 173.000000 28.000000"
 preserveAspectRatio="xMidYMid meet">

<g transform="translate(0.000000,28.000000) scale(0.100000,-0.100000)"
fill="#ffffff" stroke="none">
<path d="M53 204 c-4 -10 4 -24 23 -39 22 -18 25 -25 14 -28 -40 -14 -43 -16
-15 -14 37 3 49 41 16 52 -28 9 -27 33 2 38 19 4 18 4 -6 6 -17 0 -30 -5 -34
-15z"/>
<path d="M150 210 c0 -5 5 -10 10 -10 6 0 10 5 10 10 0 6 -4 10 -10 10 -5 0
-10 -4 -10 -10z"/>
<path d="M290 170 c0 -51 16 -70 22 -25 4 35 22 35 29 -1 l7 -29 1 33 c1 26
-4 35 -19 39 -11 3 -20 12 -20 19 0 8 -4 14 -10 14 -5 0 -10 -22 -10 -50z"/>
<path d="M463 213 c24 -6 24 -80 0 -86 -10 -3 -2 -5 17 -5 19 0 29 2 23 5 -8
3 -13 23 -13 49 0 39 -2 44 -22 43 -17 -1 -19 -2 -5 -6z"/>
<path d="M696 173 c-9 -25 -13 -49 -10 -52 4 -3 9 0 11 7 6 16 35 16 52 0 11
-11 12 -8 7 14 -11 46 -25 78 -35 78 -5 0 -16 -21 -25 -47z m32 -22 c-15 -6
-20 7 -12 31 l8 23 6 -25 c3 -14 2 -27 -2 -29z"/>
<path d="M950 210 c0 -5 5 -10 10 -10 6 0 10 5 10 10 0 6 -4 10 -10 10 -5 0
-10 -4 -10 -10z"/>
<path d="M1092 195 c-7 -8 -9 -15 -4 -15 5 0 12 -13 16 -30 4 -23 11 -30 28
-29 17 1 19 2 6 6 -11 3 -18 14 -18 28 0 14 7 25 18 28 16 4 16 5 0 6 -10 0
-18 6 -18 11 0 14 -13 12 -28 -5z"/>
<path d="M1332 195 c-7 -8 -9 -15 -4 -15 5 0 12 -13 16 -30 4 -23 11 -30 28
-29 17 1 19 2 6 6 -11 3 -18 14 -18 28 0 14 7 25 18 28 16 4 16 5 0 6 -10 0
-18 6 -18 11 0 14 -13 12 -28 -5z"/>
<path d="M143 183 c10 -3 17 -14 17 -28 0 -14 -7 -25 -17 -28 -10 -3 -2 -5 17
-5 19 0 29 2 23 5 -7 2 -13 18 -13 34 0 24 -4 29 -22 28 -17 -1 -19 -2 -5 -6z"/>
<path d="M210 156 c0 -20 5 -36 10 -36 6 0 10 14 10 31 0 39 22 34 32 -7 6
-27 6 -27 5 6 -2 30 -6 35 -29 38 -26 3 -28 1 -28 -32z"/>
<path d="M374 179 c-5 -9 -2 -10 10 -6 10 4 23 4 29 0 7 -4 2 -9 -13 -13 -14
-3 -26 -14 -28 -23 -3 -13 4 -17 28 -17 29 0 31 2 28 33 -2 24 -8 33 -25 35
-11 2 -25 -2 -29 -9z m41 -39 c-3 -5 -10 -10 -16 -10 -5 0 -9 5 -9 10 0 6 7
10 16 10 8 0 12 -4 9 -10z"/>
<path d="M534 179 c-5 -9 -2 -10 10 -6 10 4 23 4 29 0 7 -4 2 -9 -13 -13 -14
-3 -26 -14 -28 -23 -3 -13 4 -17 28 -17 29 0 31 2 28 33 -2 24 -8 33 -25 35
-11 2 -25 -2 -29 -9z m41 -39 c-3 -5 -10 -10 -16 -10 -5 0 -9 5 -9 10 0 6 7
10 16 10 8 0 12 -4 9 -10z"/>
<path d="M775 180 c-8 -14 3 -30 21 -30 23 0 16 -18 -8 -23 -16 -4 -14 -5 6
-4 35 2 47 26 17 34 -28 7 -27 20 2 26 19 4 19 4 -5 6 -15 0 -30 -3 -33 -9z"/>
<path d="M855 180 c-8 -14 3 -30 21 -30 23 0 16 -18 -8 -23 -16 -4 -14 -5 6
-4 35 2 47 26 17 34 -28 7 -27 20 2 26 19 4 19 4 -5 6 -15 0 -30 -3 -33 -9z"/>
<path d="M943 183 c10 -3 17 -14 17 -28 0 -14 -7 -25 -17 -28 -10 -3 -2 -5 17
-5 19 0 29 2 23 5 -7 2 -13 18 -13 34 0 24 -4 29 -22 28 -17 -1 -19 -2 -5 -6z"/>
<path d="M1015 180 c-8 -14 3 -30 21 -30 23 0 16 -18 -8 -23 -16 -4 -14 -5 6
-4 35 2 47 26 17 34 -28 7 -27 20 2 26 19 4 19 4 -5 6 -15 0 -30 -3 -33 -9z"/>
<path d="M1174 179 c-5 -9 -2 -10 10 -6 10 4 23 4 29 0 7 -4 2 -9 -13 -13 -14
-3 -26 -14 -28 -23 -3 -13 4 -17 28 -17 29 0 31 2 28 33 -2 24 -8 33 -25 35
-11 2 -25 -2 -29 -9z m41 -39 c-3 -5 -10 -10 -16 -10 -5 0 -9 5 -9 10 0 6 7
10 16 10 8 0 12 -4 9 -10z"/>
<path d="M1250 156 c0 -20 5 -36 10 -36 6 0 10 14 10 31 0 39 22 34 32 -7 6
-27 6 -27 5 6 -2 30 -6 35 -29 38 -26 3 -28 1 -28 -32z"/>
</g>
</svg>
